<svg xmlns="http://www.w3.org/2000/svg" version="1.1" xmlns:xlink="http://www.w3.org/1999/xlink" xmlns:svgjs="http://svgjs.dev/svgjs" width="1500" height="935" viewBox="0 0 1500 935"><g transform="matrix(1,0,0,1,-0.9090909090909918,0.3785425101214628)"><svg viewBox="0 0 396 247" data-background-color="#ffffff" preserveAspectRatio="xMidYMid meet" height="935" width="1500" xmlns="http://www.w3.org/2000/svg" xmlns:xlink="http://www.w3.org/1999/xlink"><g id="tight-bounds" transform="matrix(1,0,0,1,0.2400000000000091,-0.09999999999999432)"><svg viewBox="0 0 395.52 247.2" height="247.2" width="395.52"><g><svg></svg></g><g><svg viewBox="0 0 395.52 247.2" height="247.2" width="395.52"><g transform="matrix(1,0,0,1,75.54432,98.5892825)"><svg viewBox="0 0 244.43135999999998 50.021435" height="50.021435" width="244.43135999999998"><g><svg viewBox="0 0 244.43135999999998 50.021435" height="50.021435" width="244.43135999999998"><g><svg viewBox="0 0 244.43135999999998 50.021435" height="50.021435" width="244.43135999999998"><g id="textblocktransform"><svg viewBox="0 0 244.43135999999998 50.021435" height="50.021435" width="244.43135999999998" id="textblock"><g><svg viewBox="0 0 244.43135999999998 50.021435" height="50.021435" width="244.43135999999998"><g transform="matrix(1,0,0,1,0,0)"><svg width="244.43135999999998" viewBox="2.2 -37.1 231.63000000000002 47.150000000000006" height="50.021435" data-palette-color="#236cde"><g class="wordmark-text-0" data-fill-palette-color="primary" id="text-0"><path d="M20.9 0.5Q15.6 0.5 11.33-1.83 7.05-4.15 4.63-8.25 2.2-12.35 2.2-17.5L2.2-17.5Q2.2-22.65 4.65-26.75 7.1-30.85 11.38-33.18 15.65-35.5 20.95-35.5L20.95-35.5Q25.25-35.5 28.8-34 32.35-32.5 34.8-29.65L34.8-29.65 30.6-25.7Q26.8-29.8 21.25-29.8L21.25-29.8Q17.65-29.8 14.8-28.23 11.95-26.65 10.35-23.85 8.75-21.05 8.75-17.5L8.75-17.5Q8.75-13.95 10.35-11.15 11.95-8.35 14.8-6.78 17.65-5.2 21.25-5.2L21.25-5.2Q26.8-5.2 30.6-9.35L30.6-9.35 34.8-5.35Q32.35-2.5 28.78-1 25.2 0.5 20.9 0.5L20.9 0.5ZM60.3-26.7L66.55-26.7 66.55 0 60.6 0 60.6-3.45Q59.05-1.55 56.77-0.6 54.5 0.35 51.75 0.35L51.75 0.35Q47.85 0.35 44.77-1.35 41.7-3.05 39.97-6.15 38.25-9.25 38.25-13.35L38.25-13.35Q38.25-17.45 39.97-20.53 41.7-23.6 44.77-25.3 47.85-27 51.75-27L51.75-27Q54.35-27 56.52-26.1 58.7-25.2 60.3-23.45L60.3-23.45 60.3-26.7ZM52.45-5Q55.9-5 58.15-7.3 60.4-9.6 60.4-13.35L60.4-13.35Q60.4-17.1 58.15-19.4 55.9-21.7 52.45-21.7L52.45-21.7Q49-21.7 46.77-19.4 44.55-17.1 44.55-13.35L44.55-13.35Q44.55-9.6 46.77-7.3 49-5 52.45-5L52.45-5ZM83.55 0.35Q79.4 0.35 77.07-1.93 74.75-4.2 74.75-8.35L74.75-8.35 74.75-37.1 81-37.1 81-8.8Q81-4.8 84.75-4.8L84.75-4.8Q86-4.8 87-5.3L87-5.3 87.3-0.3Q85.55 0.35 83.55 0.35L83.55 0.35ZM104.24-4.95Q108.59-4.95 111.49-7.85L111.49-7.85 114.79-4Q113.04-1.85 110.29-0.75 107.54 0.35 104.09 0.35L104.09 0.35Q99.69 0.35 96.34-1.4 92.99-3.15 91.17-6.28 89.34-9.4 89.34-13.35L89.34-13.35Q89.34-17.25 91.12-20.38 92.89-23.5 96.02-25.25 99.14-27 103.09-27L103.09-27Q106.84-27 109.92-25.38 112.99-23.75 114.79-20.73 116.59-17.7 116.59-13.65L116.59-13.65 96.14-9.65Q97.09-7.35 99.19-6.15 101.29-4.95 104.24-4.95L104.24-4.95ZM103.09-22Q99.64-22 97.52-19.75 95.39-17.5 95.39-13.7L95.39-13.7 95.39-13.65 110.49-16.55Q109.84-19 107.87-20.5 105.89-22 103.09-22L103.09-22ZM137.74-27Q142.79-27 145.84-24.05 148.89-21.1 148.89-15.3L148.89-15.3 148.89 0 142.64 0 142.64-14.5Q142.64-18 140.99-19.78 139.34-21.55 136.29-21.55L136.29-21.55Q132.84-21.55 130.84-19.48 128.84-17.4 128.84-13.5L128.84-13.5 128.84 0 122.59 0 122.59-26.7 128.54-26.7 128.54-23.25Q130.09-25.1 132.44-26.05 134.79-27 137.74-27L137.74-27ZM176.74-37.1L182.99-37.1 182.99 0 176.99 0 176.99-3.45Q175.44-1.55 173.16-0.6 170.89 0.35 168.14 0.35L168.14 0.35Q164.29 0.35 161.21-1.35 158.14-3.05 156.39-6.18 154.64-9.3 154.64-13.35L154.64-13.35Q154.64-17.4 156.39-20.5 158.14-23.6 161.21-25.3 164.29-27 168.14-27L168.14-27Q170.79-27 172.99-26.1 175.19-25.2 176.74-23.4L176.74-23.4 176.74-37.1ZM168.89-5Q171.14-5 172.94-6.03 174.74-7.05 175.79-8.95 176.84-10.85 176.84-13.35L176.84-13.35Q176.84-15.85 175.79-17.75 174.74-19.65 172.94-20.68 171.14-21.7 168.89-21.7L168.89-21.7Q166.64-21.7 164.84-20.68 163.04-19.65 161.99-17.75 160.94-15.85 160.94-13.35L160.94-13.35Q160.94-10.85 161.99-8.95 163.04-7.05 164.84-6.03 166.64-5 168.89-5L168.89-5ZM199.99 0.35Q195.84 0.35 193.51-1.93 191.19-4.2 191.19-8.35L191.19-8.35 191.19-37.1 197.44-37.1 197.44-8.8Q197.44-4.8 201.19-4.8L201.19-4.8Q202.44-4.8 203.44-5.3L203.44-5.3 203.74-0.3Q201.99 0.35 199.99 0.35L199.99 0.35ZM227.58-26.7L233.83-26.7 233.83-4.05Q233.83 10.05 219.98 10.05L219.98 10.05Q216.33 10.05 213.01 9.08 209.68 8.1 207.53 6.25L207.53 6.25 210.33 1.55Q212.03 3 214.48 3.85 216.93 4.7 219.63 4.7L219.63 4.7Q223.73 4.7 225.66 2.73 227.58 0.75 227.58-3.35L227.58-3.35 227.58-4.6Q226.08-2.95 223.93-2.08 221.78-1.2 219.28-1.2L219.28-1.2Q213.93-1.2 210.86-4.15 207.78-7.1 207.78-13L207.78-13 207.78-26.7 214.03-26.7 214.03-13.8Q214.03-10.25 215.66-8.47 217.28-6.7 220.28-6.7L220.28-6.7Q223.63-6.7 225.61-8.75 227.58-10.8 227.58-14.7L227.58-14.7 227.58-26.7Z" fill="#236cde" data-fill-palette-color="primary"></path></g></svg></g></svg></g></svg></g></svg></g></svg></g></svg></g><g><path d="M0 123.6c0-68.262 55.338-123.6 123.6-123.6 57.587 0 105.976 39.383 119.702 92.685l-2.331 0c-13.671-52.043-61.038-90.429-117.371-90.43-67.017 0-121.345 54.328-121.345 121.345 0 67.017 54.328 121.345 121.345 121.345 56.333 0 103.7-38.387 117.371-90.43l2.331 0c-13.726 53.302-62.115 92.685-119.702 92.685-68.262 0-123.6-55.338-123.6-123.6z" fill="#236cde" stroke="transparent" data-fill-palette-color="tertiary"></path></g></svg></g><defs></defs></svg><rect width="395.52" height="247.2" fill="none" stroke="none" visibility="hidden"></rect></g></svg></g></svg>