<svg xmlns="http://www.w3.org/2000/svg" version="1.1" xmlns:xlink="http://www.w3.org/1999/xlink" xmlns:svgjs="http://svgjs.dev/svgjs" width="2000" height="1500" viewBox="0 0 2000 1500"><rect width="2000" height="1500" fill="#ffffff"></rect><g transform="matrix(0.75,0,0,0.75,249.090909090909,672.8255513094301)"><svg viewBox="0 0 396 41" data-background-color="#ffffff" preserveAspectRatio="xMidYMid meet" height="207" width="2000" xmlns="http://www.w3.org/2000/svg" xmlns:xlink="http://www.w3.org/1999/xlink"><g id="tight-bounds" transform="matrix(1,0,0,1,0.2400000000000091,-0.1189861751151966)"><svg viewBox="0 0 395.52 41.237972350230415" height="41.237972350230415" width="395.52"><g><svg viewBox="0 0 395.52 41.237972350230415" height="41.237972350230415" width="395.52"><g><svg viewBox="0 0 395.52 41.237972350230415" height="41.237972350230415" width="395.52"><g id="textblocktransform"><svg viewBox="0 0 395.52 41.237972350230415" height="41.237972350230415" width="395.52" id="textblock"><g><svg viewBox="0 0 395.52 41.237972350230415" height="41.237972350230415" width="395.52"><g transform="matrix(1,0,0,1,0,0)"><svg width="395.52" viewBox="4.5 -35.6 347.17 36.2" height="41.237972350230415" data-palette-color="#236cde"><path d="M14.6 0.4L14.6 0.4Q11.55 0.4 8.83 0.25 6.1 0.1 4.5-0.1L4.5-0.1 4.5-34.9Q6.25-35.1 8.85-35.25 11.45-35.4 14.8-35.4L14.8-35.4Q21.2-35.4 24.65-32.98 28.1-30.55 28.1-26.4L28.1-26.4Q28.1-23.65 26.63-21.73 25.15-19.8 22.35-18.55L22.35-18.55Q25.75-17.35 27.5-15.23 29.25-13.1 29.25-10L29.25-10Q29.25-5.25 25.5-2.43 21.75 0.4 14.6 0.4ZM9.25-31.3L9.25-19.9 14.75-19.9Q18.7-19.9 21.03-21.55 23.35-23.2 23.35-25.8L23.35-25.8Q23.35-28.6 21.05-30.08 18.75-31.55 14.75-31.55L14.75-31.55Q13.1-31.55 11.75-31.48 10.4-31.4 9.25-31.3L9.25-31.3ZM14.95-3.55L14.95-3.55Q19.4-3.55 21.9-5.15 24.4-6.75 24.4-9.8L24.4-9.8Q24.4-12.8 21.95-14.5 19.5-16.2 14.95-16.2L14.95-16.2 9.25-16.2 9.25-3.85Q11.9-3.55 14.95-3.55ZM48.2 0.6L48.2 0.6Q42.15 0.6 38.7-3 35.25-6.6 35.25-13.3L35.25-13.3 35.25-35 40-35 40-14.05Q40-9.05 42.05-6.3 44.1-3.55 48.2-3.55L48.2-3.55Q52.45-3.55 54.55-6.23 56.65-8.9 56.65-14.05L56.65-14.05 56.65-35 61.25-35 61.25-13.5Q61.25-9.1 59.62-5.93 58-2.75 55.07-1.07 52.15 0.6 48.2 0.6ZM74.25 0L69.5 0 69.5-35 74.25-35 74.25 0ZM104.04 0L83.24 0 83.24-35 87.99-35 87.99-4.25 104.04-4.25 104.04 0ZM117.99 0.4L117.99 0.4Q115.14 0.4 113.02 0.25 110.89 0.1 108.79-0.1L108.79-0.1 108.79-34.9Q111.14-35.15 113.39-35.27 115.64-35.4 118.54-35.4L118.54-35.4Q123.04-35.4 126.32-34 129.59-32.6 131.72-30.15 133.84-27.7 134.87-24.48 135.89-21.25 135.89-17.55L135.89-17.55Q135.89-13.9 134.84-10.65 133.79-7.4 131.62-4.93 129.44-2.45 126.07-1.03 122.69 0.4 117.99 0.4ZM118.14-3.75L118.14-3.75Q122.64-3.75 125.49-5.5 128.34-7.25 129.69-10.38 131.04-13.5 131.04-17.55L131.04-17.55Q131.04-21.15 129.69-24.3 128.34-27.45 125.54-29.38 122.74-31.3 118.39-31.3L118.39-31.3Q116.94-31.3 115.74-31.23 114.54-31.15 113.54-31.05L113.54-31.05 113.54-4Q114.59-3.85 115.74-3.8 116.89-3.75 118.14-3.75ZM169.54 0L163.64 0 154.14-33.85 158.84-35.35 166.74-5.05 174.19-31.35 180.14-31.35 187.54-5.05 195.39-35.2 199.79-33.85 190.34 0 184.44 0 177.04-26.3 169.54 0ZM209.78 0L205.03 0 205.03-35 209.78-35 209.78 0ZM230.28 0L225.53 0 225.53-30.8 214.78-30.8 214.78-35 241.03-35 241.03-30.8 230.28-30.8 230.28 0ZM250.78 0L246.03 0 246.03-35 250.78-35 250.78-20.05 268.03-20.05 268.03-35 272.78-35 272.78 0 268.03 0 268.03-15.95 250.78-15.95 250.78 0ZM308.97 0.6L308.97 0.6Q302.92 0.6 299.47-3 296.02-6.6 296.02-13.3L296.02-13.3 296.02-35 300.77-35 300.77-14.05Q300.77-9.05 302.82-6.3 304.87-3.55 308.97-3.55L308.97-3.55Q313.22-3.55 315.32-6.23 317.42-8.9 317.42-14.05L317.42-14.05 317.42-35 322.02-35 322.02-13.5Q322.02-9.1 320.4-5.93 318.77-2.75 315.85-1.07 312.92 0.6 308.97 0.6ZM338.97 0.6L338.97 0.6Q335.32 0.6 332.32-0.38 329.32-1.35 327.27-2.95L327.27-2.95 329.67-6.95Q331.47-5.45 333.72-4.5 335.97-3.55 338.97-3.55L338.97-3.55Q342.57-3.55 344.67-5.05 346.77-6.55 346.77-9.1L346.77-9.1Q346.77-10.55 346.17-11.68 345.57-12.8 343.85-13.88 342.12-14.95 338.77-16.2L338.77-16.2Q335.17-17.6 333.02-19.03 330.87-20.45 329.95-22.28 329.02-24.1 329.02-26.6L329.02-26.6Q329.02-29.1 330.4-31.13 331.77-33.15 334.45-34.38 337.12-35.6 340.92-35.6L340.92-35.6Q344.02-35.6 346.5-34.98 348.97-34.35 351.32-33.2L351.32-33.2 349.57-29.15Q347.87-30.15 345.6-30.83 343.32-31.5 340.82-31.5L340.82-31.5Q337.52-31.5 335.62-30.2 333.72-28.9 333.72-26.85L333.72-26.85Q333.72-25.55 334.27-24.55 334.82-23.55 336.45-22.6 338.07-21.65 341.32-20.45L341.32-20.45Q345.22-19 347.5-17.4 349.77-15.8 350.72-13.93 351.67-12.05 351.67-9.65L351.67-9.65Q351.67-6.4 350.05-4.1 348.42-1.8 345.55-0.6 342.67 0.6 338.97 0.6Z" opacity="1" transform="matrix(1,0,0,1,0,0)" fill="#236cde" class="wordmark-text-0" data-fill-palette-color="primary" id="text-0"></path></svg></g></svg></g></svg></g></svg></g><g></g></svg></g><defs></defs></svg><rect width="395.52" height="41.237972350230415" fill="none" stroke="none" visibility="hidden"></rect></g></svg></g></svg>