<svg xmlns="http://www.w3.org/2000/svg" viewBox="0 0 40 40" id="intercom"><path d="M29 8H11a3 3 0 0 0-3 3v18a3 3 0 0 0 3 3h18a3 3 0 0 0 3-3V11a3 3 0 0 0-3-3Zm-5.8 4.4a.8.8 0 1 1 1.6 0v10.69a.8.8 0 1 1-1.6 0Zm-4-.4a.8.8 0 0 1 1.6 0v11.6a.8.8 0 0 1-1.6 0Zm-4 .4a.8.8 0 1 1 1.6 0v10.69a.8.8 0 1 1-1.6 0Zm-4 1.6a.8.8 0 0 1 1.6 0v7.2a.8.8 0 1 1-1.6 0Zm17.32 12.2A13.54 13.54 0 0 1 20 28.8a13.54 13.54 0 0 1-8.52-2.6.8.8 0 0 1-.09-1.13.8.8 0 0 1 1.13-.07A12.23 12.23 0 0 0 20 27.2a12.14 12.14 0 0 0 7.48-2.2.8.8 0 1 1 1 1.21Zm.28-5a.8.8 0 1 1-1.6 0V14a.8.8 0 0 1 1.6 0Z"></path></svg>