<svg xmlns="http://www.w3.org/2000/svg" enable-background="new 0 0 100 100" viewBox="0 0 100 100" id="microsoft-team"><g><path fill="#464eb8" d="M84.025,35.881c5.797,0,10.513-4.729,10.513-10.54c-0.577-13.983-20.45-13.979-21.026,0
				C73.512,31.152,78.229,35.881,84.025,35.881z"></path><path fill="#464eb8" d="M90.958,38.71H72.193h-0.036c-0.005,0-0.003,0-0.009,0c-1.123,0-15.805,0-20.538,0v-3.68
				c0.784,0.139,1.605,0.232,2.467,0.268c0.093,0.001,0.186-0.006,0.279-0.007c0.358-0.006,0.713-0.023,1.063-0.053
				c0.12-0.011,0.239-0.021,0.357-0.035c0.403-0.045,0.801-0.104,1.193-0.181c0.024-0.005,0.05-0.008,0.074-0.012
				c1.858-0.379,3.61-1.12,5.167-2.17c1.44-0.971,2.687-2.203,3.693-3.615c0.26-0.341,0.497-0.697,0.718-1.061
				c0.021-0.036,0.044-0.07,0.065-0.107c0.17-0.287,0.32-0.584,0.466-0.884c0.064-0.13,0.13-0.26,0.19-0.392
				c0.154-0.345,0.296-0.696,0.421-1.053c0.011-0.03,0.022-0.059,0.032-0.088c1.427-4.208,0.774-9.156-1.676-12.856
				c-0.648-0.949-1.417-1.806-2.268-2.574c-0.176-0.153-0.344-0.314-0.529-0.457c-0.714-0.588-1.485-1.109-2.304-1.552
				c-0.41-0.222-0.831-0.425-1.263-0.607c-0.434-0.192-0.887-0.35-1.347-0.493c-0.264-0.081-0.538-0.141-0.808-0.207
				c-0.239-0.058-0.475-0.121-0.717-0.166c-0.2-0.038-0.405-0.062-0.607-0.092c-0.352-0.05-0.704-0.096-1.06-0.121
				c-0.122-0.009-0.245-0.012-0.368-0.018C54.486,6.479,54.123,6.48,53.76,6.49c-2.08,0.121-3.926,0.558-5.543,1.24
				c-0.33,0.149-0.664,0.294-0.975,0.47C44,9.966,41.52,12.972,40.375,16.493c-0.794,2.629-0.862,5.468-0.187,8.129
				c0.007,0.025,0.013,0.051,0.02,0.076c0.032,0.115,0.065,0.23,0.097,0.345c0.039,0.137,0.085,0.273,0.128,0.409
				c0.039,0.11,0.08,0.219,0.121,0.329H8.774c-2.846,0-5.162,2.316-5.162,5.162v37.672c0,2.847,2.316,5.162,5.162,5.162h20.122
				c0.026,0.118,0.059,0.232,0.087,0.349C31.753,85.025,41.446,92.733,52.9,93.011c9.503-0.231,17.666-5.721,21.753-13.592
				c0.061,0.022,0.124,0.038,0.185,0.059c10.182,3.851,21.752-4.229,21.546-15.131V44.122C96.385,41.138,93.95,38.71,90.958,38.71z"></path><path fill="#7b83eb" d="M77.444 44.232c.069-2.971-2.287-5.448-5.251-5.521-.012 0-21.432 0-21.432 0-.789 0-1.429.641-1.429 1.433v29.095c0 1.342-1.089 2.433-2.428 2.433H30.199c-.429 0-.836.194-1.107.527-.271.334-.379.772-.292 1.194 2.367 11.561 12.248 19.837 24.1 20.126 13.856-.34 24.866-11.914 24.544-25.767L77.444 44.232zM54.077 35.298c.093.001.186-.006.279-.007.358-.005.713-.023 1.064-.053.12-.011.239-.021.357-.035.402-.045.801-.104 1.193-.181.024-.005.05-.008.074-.013 1.858-.379 3.61-1.12 5.167-2.17 1.441-.971 2.687-2.203 3.694-3.615.26-.341.497-.697.718-1.061.021-.036.044-.07.065-.107.17-.287.32-.585.466-.884.064-.13.13-.259.19-.392.154-.345.297-.696.421-1.053.011-.03.022-.059.032-.088 1.427-4.208.774-9.157-1.676-12.856-.648-.949-1.417-1.806-2.268-2.574-.176-.153-.344-.314-.529-.457-.714-.588-1.485-1.109-2.304-1.552-.41-.222-.831-.425-1.263-.607-.434-.192-.887-.35-1.347-.493-.264-.081-.538-.14-.808-.207-.239-.058-.475-.121-.717-.166-.2-.038-.404-.062-.607-.092-.352-.05-.704-.096-1.06-.121-.122-.009-.245-.012-.367-.018-.362-.016-.725-.015-1.088-.005-2.08.121-3.926.557-5.543 1.24-.33.149-.664.294-.975.47-3.242 1.767-5.723 4.773-6.867 8.294-.794 2.629-.862 5.468-.187 8.129.007.025.013.051.02.076.032.115.065.23.097.345.039.137.085.273.128.409.06.171.123.34.187.51h-.027C42.371 30.941 46.864 34.993 54.077 35.298z"></path><g><path fill="#464eb8" d="M46.448,25.783H8.774c-2.846,0-5.162,2.316-5.162,5.162v37.672c0,2.847,2.316,5.162,5.162,5.162h37.674
					c2.846,0,5.161-2.316,5.161-5.162V30.945C51.61,28.099,49.295,25.783,46.448,25.783z"></path><path fill="#fff" d="M37.109,36.271h-19.28c-0.771,0-1.395,0.625-1.395,1.396l0,3.514c0,0.771,0.624,1.396,1.395,1.396h6.22
					l0,19.575c0,0.771,0.624,1.396,1.395,1.396h4.134c0.771,0,1.395-0.625,1.395-1.396l0-19.575h6.136
					c0.771,0,1.395-0.625,1.395-1.396l0-3.514C38.504,36.896,37.88,36.271,37.109,36.271z"></path></g></g></svg>