<svg xmlns="http://www.w3.org/2000/svg" version="1.1" xmlns:xlink="http://www.w3.org/1999/xlink" xmlns:svgjs="http://svgjs.dev/svgjs" width="128" height="128" viewBox="0 0 128 128"><g transform="matrix(0.8046875,0,0,0.8046875,12.333870967741937,12.333870967741937)"><svg viewBox="0 0 155 155" data-background-color="#ffffff" preserveAspectRatio="xMidYMid meet" height="128" width="128" xmlns="http://www.w3.org/2000/svg" xmlns:xlink="http://www.w3.org/1999/xlink"><g id="tight-bounds" transform="matrix(1,0,0,1,0.25,0.25)"><svg viewBox="0 0 154.5 154.5" height="154.5" width="154.5"><g><svg></svg></g><g><svg viewBox="0 0 154.5 154.5" height="154.5" width="154.5"><g transform="matrix(1,0,0,1,50.53282485,47.746371)"><svg viewBox="0 0 53.4343503 59.00725799999999" height="59.00725799999999" width="53.4343503"><g><svg viewBox="0 0 53.4343503 59.00725799999999" height="59.00725799999999" width="53.4343503"><g><svg viewBox="0 0 53.4343503 59.00725799999999" height="59.00725799999999" width="53.4343503"><g id="textblocktransform"><svg viewBox="0 0 53.4343503 59.00725799999999" height="59.00725799999999" width="53.4343503" id="textblock"><g><svg viewBox="0 0 53.4343503 59.00725799999999" height="59.00725799999999" width="53.4343503"><g transform="matrix(1,0,0,1,0,0)"><svg width="53.4343503" viewBox="2.2 -35.5 32.599999999999994 36" height="59.00725799999999" data-palette-color="#236cde"><g class="wordmark-text-0" data-fill-palette-color="primary" id="text-0"><path d="M20.9 0.5Q15.6 0.5 11.33-1.83 7.05-4.15 4.63-8.25 2.2-12.35 2.2-17.5L2.2-17.5Q2.2-22.65 4.65-26.75 7.1-30.85 11.38-33.18 15.65-35.5 20.95-35.5L20.95-35.5Q25.25-35.5 28.8-34 32.35-32.5 34.8-29.65L34.8-29.65 30.6-25.7Q26.8-29.8 21.25-29.8L21.25-29.8Q17.65-29.8 14.8-28.23 11.95-26.65 10.35-23.85 8.75-21.05 8.75-17.5L8.75-17.5Q8.75-13.95 10.35-11.15 11.95-8.35 14.8-6.78 17.65-5.2 21.25-5.2L21.25-5.2Q26.8-5.2 30.6-9.35L30.6-9.35 34.8-5.35Q32.35-2.5 28.78-1 25.2 0.5 20.9 0.5L20.9 0.5Z" fill="#236cde" data-fill-palette-color="primary"></path></g></svg></g></svg></g></svg></g></svg></g></svg></g></svg></g><g><path d="M51.674 33.816A26.717 26.717 0 0 1 102.826 33.816L97.505 33.816A21.396 21.396 0 0 0 56.995 33.816L51.674 33.816M51.674 120.684A26.717 26.717 0 0 0 102.826 120.684L97.505 120.684A21.396 21.396 0 0 1 56.995 120.684L51.674 120.684" fill="#236cde" stroke="transparent" data-fill-palette-color="tertiary"></path></g></svg></g><defs></defs></svg><rect width="154.5" height="154.5" fill="none" stroke="none" visibility="hidden"></rect></g></svg></g></svg>